<?xml version="1.0" encoding="UTF-8" standalone="no"?>
<!-- Generator: Adobe Illustrator 16.0.0, SVG Export Plug-In . SVG Version: 6.00 Build 0)  -->

<svg
   xmlns:dc="http://purl.org/dc/elements/1.1/"
   xmlns:cc="http://creativecommons.org/ns#"
   xmlns:rdf="http://www.w3.org/1999/02/22-rdf-syntax-ns#"
   xmlns:svg="http://www.w3.org/2000/svg"
   xmlns="http://www.w3.org/2000/svg"
   xmlns:sodipodi="http://sodipodi.sourceforge.net/DTD/sodipodi-0.dtd"
   xmlns:inkscape="http://www.inkscape.org/namespaces/inkscape"
   version="1.1"
   id="Capa_1"
   x="0px"
   y="0px"
   width="256"
   height="256"
   viewBox="0 0 255.99999 255.99999"
   xml:space="preserve"
   sodipodi:docname="icon-settings.svg"
   inkscape:version="0.92.5 (2060ec1f9f, 2020-04-08)"><metadata
   id="metadata41"><rdf:RDF><cc:Work
       rdf:about=""><dc:format>image/svg+xml</dc:format><dc:type
         rdf:resource="http://purl.org/dc/dcmitype/StillImage" /><dc:title></dc:title></cc:Work></rdf:RDF></metadata><defs
   id="defs39" /><sodipodi:namedview
   pagecolor="#ffffff"
   bordercolor="#666666"
   borderopacity="1"
   objecttolerance="10"
   gridtolerance="10"
   guidetolerance="10"
   inkscape:pageopacity="0"
   inkscape:pageshadow="2"
   inkscape:window-width="1920"
   inkscape:window-height="1055"
   id="namedview37"
   showgrid="false"
   inkscape:zoom="1"
   inkscape:cx="294.72911"
   inkscape:cy="254.76741"
   inkscape:window-x="0"
   inkscape:window-y="0"
   inkscape:window-maximized="1"
   inkscape:current-layer="Capa_1" />
<g
   id="g4"
   transform="matrix(5.1239669,0,0,5.1239669,4.000001,4.000001)"
   style="stroke-width:0.1951613">
	<path
   d="m 48.4,24.2 c 0,-1.8 -1.297,-3.719 -2.896,-4.285 -1.599,-0.566 -3.149,-1.952 -3.6,-3.045 C 41.453,15.777 41.57,13.697 42.3,12.165 43.029,10.633 42.587,8.358 41.314,7.085 40.042,5.812 37.767,5.371 36.234,6.1 34.702,6.829 32.625,6.948 31.535,6.497 30.445,6.046 29.058,4.494 28.49,2.895 27.921,1.296 26,0 24.2,0 22.4,0 20.479,1.296 19.91,2.895 19.341,4.494 17.955,6.046 16.865,6.497 15.775,6.948 13.697,6.829 12.165,6.1 10.633,5.371 8.358,5.812 7.085,7.085 5.812,8.358 5.371,10.632 6.1,12.165 6.829,13.698 6.945,15.776 6.492,16.868 6.039,17.96 4.494,19.349 2.895,19.915 1.296,20.481 0,22.4 0,24.2 c 0,1.8 1.296,3.721 2.895,4.29 1.599,0.568 3.146,1.957 3.599,3.047 0.453,1.089 0.335,3.166 -0.394,4.698 -0.729,1.532 -0.288,3.807 0.985,5.08 1.273,1.272 3.547,1.714 5.08,0.985 1.533,-0.729 3.61,-0.847 4.7,-0.395 1.091,0.452 2.476,2.008 3.045,3.604 0.569,1.596 2.49,2.891 4.29,2.891 1.8,0 3.721,-1.295 4.29,-2.891 0.568,-1.596 1.953,-3.15 3.043,-3.604 1.09,-0.453 3.17,-0.334 4.701,0.396 1.533,0.729 3.808,0.287 5.08,-0.985 1.273,-1.273 1.715,-3.548 0.986,-5.08 -0.729,-1.533 -0.849,-3.61 -0.398,-4.7 0.451,-1.09 2.004,-2.477 3.603,-3.045 C 47.104,27.921 48.4,26 48.4,24.2 Z m -24.2,8.88 c -4.91,0 -8.88,-3.97 -8.88,-8.87 0,-4.91 3.97,-8.88 8.88,-8.88 4.899,0 8.87,3.97 8.87,8.88 0,4.9 -3.97,8.87 -8.87,8.87 z"
   id="path2"
   inkscape:connector-curvature="0"
   style="stroke-width:0.1951613" />
</g>
<g
   id="g6"
   transform="translate(0,207.6)">
</g>
<g
   id="g8"
   transform="translate(0,207.6)">
</g>
<g
   id="g10"
   transform="translate(0,207.6)">
</g>
<g
   id="g12"
   transform="translate(0,207.6)">
</g>
<g
   id="g14"
   transform="translate(0,207.6)">
</g>
<g
   id="g16"
   transform="translate(0,207.6)">
</g>
<g
   id="g18"
   transform="translate(0,207.6)">
</g>
<g
   id="g20"
   transform="translate(0,207.6)">
</g>
<g
   id="g22"
   transform="translate(0,207.6)">
</g>
<g
   id="g24"
   transform="translate(0,207.6)">
</g>
<g
   id="g26"
   transform="translate(0,207.6)">
</g>
<g
   id="g28"
   transform="translate(0,207.6)">
</g>
<g
   id="g30"
   transform="translate(0,207.6)">
</g>
<g
   id="g32"
   transform="translate(0,207.6)">
</g>
<g
   id="g34"
   transform="translate(0,207.6)">
</g>
</svg>