<?xml version="1.0" encoding="UTF-8" standalone="no"?>
<!-- Generator: Adobe Illustrator 19.0.0, SVG Export Plug-In . SVG Version: 6.00 Build 0)  -->

<svg
   xmlns:dc="http://purl.org/dc/elements/1.1/"
   xmlns:cc="http://creativecommons.org/ns#"
   xmlns:rdf="http://www.w3.org/1999/02/22-rdf-syntax-ns#"
   xmlns:svg="http://www.w3.org/2000/svg"
   xmlns="http://www.w3.org/2000/svg"
   xmlns:sodipodi="http://sodipodi.sourceforge.net/DTD/sodipodi-0.dtd"
   xmlns:inkscape="http://www.inkscape.org/namespaces/inkscape"
   version="1.1"
   id="Capa_1"
   x="0px"
   y="0px"
   viewBox="0 0 512 512"
   xml:space="preserve"
   sodipodi:docname="icon-export.svg"
   style="enable-background:new 0 0 512 512;"
   inkscape:version="0.92.5 (2060ec1f9f, 2020-04-08)"><metadata
   id="metadata67"><rdf:RDF><cc:Work
       rdf:about=""><dc:format>image/svg+xml</dc:format><dc:type
         rdf:resource="http://purl.org/dc/dcmitype/StillImage" /><dc:title /></cc:Work></rdf:RDF></metadata><defs
   id="defs65" /><sodipodi:namedview
   pagecolor="#ffffff"
   bordercolor="#666666"
   borderopacity="1"
   objecttolerance="10"
   gridtolerance="10"
   guidetolerance="10"
   inkscape:pageopacity="0"
   inkscape:pageshadow="2"
   inkscape:window-width="1920"
   inkscape:window-height="1055"
   id="namedview63"
   showgrid="false"
   units="px"
   inkscape:zoom="1.4142136"
   inkscape:cx="206.31382"
   inkscape:cy="229.50115"
   inkscape:window-x="0"
   inkscape:window-y="0"
   inkscape:window-maximized="1"
   inkscape:current-layer="Capa_1"
   inkscape:snap-bbox="true"
   inkscape:snap-intersection-paths="true" />




<g
   style="stroke-width:1.03226006"
   id="g6"
   transform="matrix(0.96874811,0,0,0.96874811,8.0004838,7.9999995)">
	<g
   style="stroke-width:1.03226006"
   id="g4">
		<path
   style="stroke-width:1.03226006"
   inkscape:connector-curvature="0"
   d="M 460.943,147.656 310.318,5.089 C 306.859,1.822 302.291,0 297.53,0 H 63.845 C 53.574,0 45.249,8.325 45.249,18.596 v 474.809 c 0,10.271 8.325,18.596 18.596,18.596 h 384.31 c 10.271,0 18.596,-8.325 18.596,-18.596 V 161.162 c 0,-5.107 -2.102,-9.992 -5.808,-13.506 z M 429.559,474.809 H 82.441 V 37.191 H 290.13 l 139.43,131.973 v 305.645 z"
   id="path2" />
	</g>
</g><g
   style="stroke-width:1.03226006"
   id="g30"
   transform="matrix(0.96874811,0,0,0.96874811,8.0004838,7.9999995)">
	<g
   style="stroke-width:1.03226006"
   id="g28">
		<path
   style="stroke-width:1.03226006"
   inkscape:connector-curvature="0"
   d="M 316.126,142.567 V 18.596 h -37.191 v 142.567 c 0,10.271 8.325,18.596 18.596,18.596 h 150.625 v -37.191 h -132.03 z"
   id="path26" />
	</g>
</g>
<g
   id="g32">
</g>
<g
   id="g34">
</g>
<g
   id="g36">
</g>
<g
   id="g38">
</g>
<g
   id="g40">
</g>
<g
   id="g42">
</g>
<g
   id="g44">
</g>
<g
   id="g46">
</g>
<g
   id="g48">
</g>
<g
   id="g50">
</g>
<g
   id="g52">
</g>
<g
   id="g54">
</g>
<g
   id="g56">
</g>
<g
   id="g58">
</g>
<g
   id="g60">
</g>
<g
   id="g864"
   transform="matrix(0.92190765,0,0,0.92190765,8.4671689,66.321059)"
   style="stroke-width:1.08470738"><g
     transform="matrix(0.88460755,0.39489541,-0.39489541,0.88460755,77.27273,-70.451102)"
     id="g24"
     style="stroke-width:1.11970007">
	<g
   id="g22"
   style="stroke-width:1.11970007">
		<path
   id="path20"
   d="m 272.426,220.259 c -10.066,-1.531 -19.631,5.442 -21.174,15.596 l -27.274,179.758 c -1.543,10.159 5.442,19.637 15.596,21.174 0.948,0.143 1.884,0.211 2.814,0.211 9.037,0 16.959,-6.595 18.36,-15.806 l 27.274,-179.758 c 1.543,-10.154 -5.443,-19.631 -15.596,-21.175 z"
   inkscape:connector-curvature="0"
   style="stroke-width:1.11970007" />
	</g>
</g><g
     style="stroke-width:1.11970007"
     id="g847"
     transform="matrix(-0.88460755,0.39489541,0.39489541,0.88460755,365.85573,-70.451102)">
	<g
   style="stroke-width:1.11970007"
   id="g845">
		<path
   style="stroke-width:1.11970007"
   inkscape:connector-curvature="0"
   d="m 272.426,220.259 c -10.066,-1.531 -19.631,5.442 -21.174,15.596 l -27.274,179.758 c -1.543,10.159 5.442,19.637 15.596,21.174 0.948,0.143 1.884,0.211 2.814,0.211 9.037,0 16.959,-6.595 18.36,-15.806 l 27.274,-179.758 c 1.543,-10.154 -5.443,-19.631 -15.596,-21.175 z"
   id="path843" />
	</g>
</g><g
     transform="rotate(81.588463,200.81703,343.26552)"
     id="g853"
     style="stroke-width:1.11970007">
	<g
   id="g851"
   style="stroke-width:1.11970007">
		<path
   id="path849"
   d="m 272.426,220.259 c -10.066,-1.531 -19.631,5.442 -21.174,15.596 l -27.274,179.758 c -1.543,10.159 5.442,19.637 15.596,21.174 0.948,0.143 1.884,0.211 2.814,0.211 9.037,0 16.959,-6.595 18.36,-15.806 l 27.274,-179.758 c 1.543,-10.154 -5.443,-19.631 -15.596,-21.175 z"
   inkscape:connector-curvature="0"
   style="stroke-width:1.11970007" />
	</g>
</g></g><g
   style="stroke-width:1.39559352"
   transform="matrix(0.71654102,0,0,0.71654102,161.61453,151.47355)"
   id="g884"><g
     style="stroke-width:1.44061553"
     id="g870"
     transform="matrix(0.88460755,0.39489541,-0.39489541,0.88460755,77.27273,-70.451102)">
	<g
   style="stroke-width:1.44061553"
   id="g868">
		<path
   style="stroke-width:1.44061553"
   inkscape:connector-curvature="0"
   d="m 272.426,220.259 c -10.066,-1.531 -19.631,5.442 -21.174,15.596 l -27.274,179.758 c -1.543,10.159 5.442,19.637 15.596,21.174 0.948,0.143 1.884,0.211 2.814,0.211 9.037,0 16.959,-6.595 18.36,-15.806 l 27.274,-179.758 c 1.543,-10.154 -5.443,-19.631 -15.596,-21.175 z"
   id="path866" />
	</g>
</g><g
     transform="matrix(-0.88460755,0.39489541,0.39489541,0.88460755,365.85573,-70.451102)"
     id="g876"
     style="stroke-width:1.44061553">
	<g
   id="g874"
   style="stroke-width:1.44061553">
		<path
   id="path872"
   d="m 272.426,220.259 c -10.066,-1.531 -19.631,5.442 -21.174,15.596 l -27.274,179.758 c -1.543,10.159 5.442,19.637 15.596,21.174 0.948,0.143 1.884,0.211 2.814,0.211 9.037,0 16.959,-6.595 18.36,-15.806 l 27.274,-179.758 c 1.543,-10.154 -5.443,-19.631 -15.596,-21.175 z"
   inkscape:connector-curvature="0"
   style="stroke-width:1.44061553" />
	</g>
</g><g
     style="stroke-width:1.44061553"
     id="g882"
     transform="rotate(81.588463,200.81703,343.26552)">
	<g
   style="stroke-width:1.44061553"
   id="g880">
		<path
   style="stroke-width:1.44061553"
   inkscape:connector-curvature="0"
   d="m 272.426,220.259 c -10.066,-1.531 -19.631,5.442 -21.174,15.596 l -27.274,179.758 c -1.543,10.159 5.442,19.637 15.596,21.174 0.948,0.143 1.884,0.211 2.814,0.211 9.037,0 16.959,-6.595 18.36,-15.806 l 27.274,-179.758 c 1.543,-10.154 -5.443,-19.631 -15.596,-21.175 z"
   id="path878" />
	</g>
</g></g><circle
   style="opacity:1;fill:#000000;fill-opacity:1;stroke:none;stroke-width:29.99999619;stroke-linejoin:round;stroke-miterlimit:4;stroke-dasharray:none;stroke-dashoffset:0;stroke-opacity:1"
   id="path886"
   cx="319.49954"
   cy="251.19029"
   r="31" /></svg>