<?xml version="1.0" encoding="UTF-8" standalone="no"?>
<!-- Generator: Adobe Illustrator 19.0.0, SVG Export Plug-In . SVG Version: 6.00 Build 0)  -->

<svg
   xmlns:dc="http://purl.org/dc/elements/1.1/"
   xmlns:cc="http://creativecommons.org/ns#"
   xmlns:rdf="http://www.w3.org/1999/02/22-rdf-syntax-ns#"
   xmlns:svg="http://www.w3.org/2000/svg"
   xmlns="http://www.w3.org/2000/svg"
   xmlns:sodipodi="http://sodipodi.sourceforge.net/DTD/sodipodi-0.dtd"
   xmlns:inkscape="http://www.inkscape.org/namespaces/inkscape"
   version="1.1"
   id="Capa_1"
   x="0px"
   y="0px"
   viewBox="0 0 512 512"
   xml:space="preserve"
   sodipodi:docname="coding.svg"
   style="enable-background:new 0 0 512 512;"
   inkscape:version="0.92.5 (2060ec1f9f, 2020-04-08)"><metadata
   id="metadata67"><rdf:RDF><cc:Work
       rdf:about=""><dc:format>image/svg+xml</dc:format><dc:type
         rdf:resource="http://purl.org/dc/dcmitype/StillImage" /><dc:title></dc:title></cc:Work></rdf:RDF></metadata><defs
   id="defs65" /><sodipodi:namedview
   pagecolor="#ffffff"
   bordercolor="#666666"
   borderopacity="1"
   objecttolerance="10"
   gridtolerance="10"
   guidetolerance="10"
   inkscape:pageopacity="0"
   inkscape:pageshadow="2"
   inkscape:window-width="1920"
   inkscape:window-height="1055"
   id="namedview63"
   showgrid="false"
   units="px"
   inkscape:zoom="0.5"
   inkscape:cx="509.01323"
   inkscape:cy="377.74067"
   inkscape:window-x="0"
   inkscape:window-y="0"
   inkscape:window-maximized="1"
   inkscape:current-layer="Capa_1" />




<g
   style="stroke-width:1.03226006"
   id="g6"
   transform="matrix(0.96874811,0,0,0.96874811,8.0004838,7.9999995)">
	<g
   style="stroke-width:1.03226006"
   id="g4">
		<path
   style="stroke-width:1.03226006"
   inkscape:connector-curvature="0"
   d="M 460.943,147.656 310.318,5.089 C 306.859,1.822 302.291,0 297.53,0 H 63.845 C 53.574,0 45.249,8.325 45.249,18.596 v 474.809 c 0,10.271 8.325,18.596 18.596,18.596 h 384.31 c 10.271,0 18.596,-8.325 18.596,-18.596 V 161.162 c 0,-5.107 -2.102,-9.992 -5.808,-13.506 z M 429.559,474.809 H 82.441 V 37.191 H 290.13 l 139.43,131.973 v 305.645 z"
   id="path2" />
	</g>
</g><g
   style="stroke-width:1.03226006"
   id="g12"
   transform="matrix(0.96874811,0,0,0.96874811,8.0004838,7.9999995)">
	<g
   style="stroke-width:1.03226006"
   id="g10">
		<path
   style="stroke-width:1.03226006"
   inkscape:connector-curvature="0"
   d="m 379.332,316.566 -45.249,-53.927 c -6.595,-7.86 -18.323,-8.901 -26.201,-2.287 -7.86,6.601 -8.889,18.329 -2.287,26.201 l 35.22,41.97 -35.214,41.97 c -6.608,7.872 -5.579,19.606 2.287,26.201 3.49,2.926 7.73,4.351 11.945,4.351 5.306,0 10.581,-2.256 14.25,-6.645 l 45.249,-53.927 c 5.809,-6.911 5.809,-16.996 0,-23.907 z"
   id="path8" />
	</g>
</g><g
   style="stroke-width:1.03226006"
   id="g18"
   transform="matrix(0.96874811,0,0,0.96874811,8.0004838,7.9999995)">
	<g
   style="stroke-width:1.03226006"
   id="g16">
		<path
   style="stroke-width:1.03226006"
   inkscape:connector-curvature="0"
   d="m 206.405,370.493 -35.226,-41.97 35.22,-41.964 c 6.601,-7.872 5.579,-19.606 -2.293,-26.201 -7.866,-6.602 -19.594,-5.573 -26.201,2.287 l -45.249,53.927 c -5.802,6.911 -5.802,16.996 0,23.908 l 45.249,53.927 c 3.682,4.382 8.951,6.639 14.257,6.639 4.221,0 8.461,-1.426 11.951,-4.351 7.865,-6.602 8.894,-18.329 2.292,-26.202 z"
   id="path14" />
	</g>
</g><g
   style="stroke-width:1.03226006"
   id="g24"
   transform="matrix(0.96874811,0,0,0.96874811,8.0004838,7.9999995)">
	<g
   style="stroke-width:1.03226006"
   id="g22">
		<path
   style="stroke-width:1.03226006"
   inkscape:connector-curvature="0"
   d="m 272.426,220.259 c -10.066,-1.531 -19.631,5.442 -21.174,15.596 l -27.274,179.758 c -1.543,10.159 5.442,19.637 15.596,21.174 0.948,0.143 1.884,0.211 2.814,0.211 9.037,0 16.959,-6.595 18.36,-15.806 l 27.274,-179.758 c 1.543,-10.154 -5.443,-19.631 -15.596,-21.175 z"
   id="path20" />
	</g>
</g><g
   style="stroke-width:1.03226006"
   id="g30"
   transform="matrix(0.96874811,0,0,0.96874811,8.0004838,7.9999995)">
	<g
   style="stroke-width:1.03226006"
   id="g28">
		<path
   style="stroke-width:1.03226006"
   inkscape:connector-curvature="0"
   d="M 316.126,142.567 V 18.596 h -37.191 v 142.567 c 0,10.271 8.325,18.596 18.596,18.596 h 150.625 v -37.191 h -132.03 z"
   id="path26" />
	</g>
</g>
<g
   id="g32">
</g>
<g
   id="g34">
</g>
<g
   id="g36">
</g>
<g
   id="g38">
</g>
<g
   id="g40">
</g>
<g
   id="g42">
</g>
<g
   id="g44">
</g>
<g
   id="g46">
</g>
<g
   id="g48">
</g>
<g
   id="g50">
</g>
<g
   id="g52">
</g>
<g
   id="g54">
</g>
<g
   id="g56">
</g>
<g
   id="g58">
</g>
<g
   id="g60">
</g>
</svg>