<?xml version="1.0" encoding="UTF-8" standalone="no"?>
<!-- Generator: Adobe Illustrator 18.0.0, SVG Export Plug-In . SVG Version: 6.00 Build 0)  -->

<svg
   xmlns:dc="http://purl.org/dc/elements/1.1/"
   xmlns:cc="http://creativecommons.org/ns#"
   xmlns:rdf="http://www.w3.org/1999/02/22-rdf-syntax-ns#"
   xmlns:svg="http://www.w3.org/2000/svg"
   xmlns="http://www.w3.org/2000/svg"
   xmlns:sodipodi="http://sodipodi.sourceforge.net/DTD/sodipodi-0.dtd"
   xmlns:inkscape="http://www.inkscape.org/namespaces/inkscape"
   version="1.1"
   id="Capa_1"
   x="0px"
   y="0px"
   viewBox="0 0 330 330"
   style="enable-background:new 0 0 330 330;"
   xml:space="preserve"
   sodipodi:docname="information.svg"
   inkscape:version="0.92.5 (2060ec1f9f, 2020-04-08)"><metadata
   id="metadata45"><rdf:RDF><cc:Work
       rdf:about=""><dc:format>image/svg+xml</dc:format><dc:type
         rdf:resource="http://purl.org/dc/dcmitype/StillImage" /><dc:title></dc:title></cc:Work></rdf:RDF></metadata><defs
   id="defs43" /><sodipodi:namedview
   pagecolor="#ffffff"
   bordercolor="#666666"
   borderopacity="1"
   objecttolerance="10"
   gridtolerance="10"
   guidetolerance="10"
   inkscape:pageopacity="0"
   inkscape:pageshadow="2"
   inkscape:window-width="1920"
   inkscape:window-height="1055"
   id="namedview41"
   showgrid="false"
   inkscape:zoom="1.430303"
   inkscape:cx="199.20818"
   inkscape:cy="287.24611"
   inkscape:window-x="0"
   inkscape:window-y="0"
   inkscape:window-maximized="1"
   inkscape:current-layer="Capa_1" />
<g
   id="g8"
   transform="matrix(0.96875152,0,0,0.96875152,5.1559992,5.1559992)"
   style="stroke-width:1.03225636">
	<path
   d="M 165,0 C 74.019,0 0,74.02 0,165.001 0,255.982 74.019,330 165,330 255.981,330 330,255.982 330,165.001 330,74.02 255.981,0 165,0 Z m 0,300 C 90.56,300 30,239.44 30,165.001 30,90.562 90.56,30 165,30 239.44,30 300,90.562 300,165.001 300,239.44 239.439,300 165,300 Z"
   id="path2"
   inkscape:connector-curvature="0"
   style="stroke-width:1.03225636" />
	<path
   d="m 164.998,70 c -11.026,0 -19.996,8.976 -19.996,20.009 0,11.023 8.97,19.991 19.996,19.991 11.026,0 19.996,-8.968 19.996,-19.991 C 184.994,78.976 176.024,70 164.998,70 Z"
   id="path4"
   inkscape:connector-curvature="0"
   style="stroke-width:1.03225636" />
	<path
   d="m 165,140 c -8.284,0 -15,6.716 -15,15 v 90 c 0,8.284 6.716,15 15,15 8.284,0 15,-6.716 15,-15 v -90 c 0,-8.284 -6.716,-15 -15,-15 z"
   id="path6"
   inkscape:connector-curvature="0"
   style="stroke-width:1.03225636" />
</g>
<g
   id="g10"
   transform="matrix(0.96875152,0,0,0.96875152,0,10.312)"
   style="stroke-width:1.03225636">
</g>
<g
   id="g12"
   transform="matrix(0.96875152,0,0,0.96875152,0,10.312)"
   style="stroke-width:1.03225636">
</g>
<g
   id="g14"
   transform="matrix(0.96875152,0,0,0.96875152,0,10.312)"
   style="stroke-width:1.03225636">
</g>
<g
   id="g16"
   transform="matrix(0.96875152,0,0,0.96875152,0,10.312)"
   style="stroke-width:1.03225636">
</g>
<g
   id="g18"
   transform="matrix(0.96875152,0,0,0.96875152,0,10.312)"
   style="stroke-width:1.03225636">
</g>
<g
   id="g20"
   transform="matrix(0.96875152,0,0,0.96875152,0,10.312)"
   style="stroke-width:1.03225636">
</g>
<g
   id="g22"
   transform="matrix(0.96875152,0,0,0.96875152,0,10.312)"
   style="stroke-width:1.03225636">
</g>
<g
   id="g24"
   transform="matrix(0.96875152,0,0,0.96875152,0,10.312)"
   style="stroke-width:1.03225636">
</g>
<g
   id="g26"
   transform="matrix(0.96875152,0,0,0.96875152,0,10.312)"
   style="stroke-width:1.03225636">
</g>
<g
   id="g28"
   transform="matrix(0.96875152,0,0,0.96875152,0,10.312)"
   style="stroke-width:1.03225636">
</g>
<g
   id="g30"
   transform="matrix(0.96875152,0,0,0.96875152,0,10.312)"
   style="stroke-width:1.03225636">
</g>
<g
   id="g32"
   transform="matrix(0.96875152,0,0,0.96875152,0,10.312)"
   style="stroke-width:1.03225636">
</g>
<g
   id="g34"
   transform="matrix(0.96875152,0,0,0.96875152,0,10.312)"
   style="stroke-width:1.03225636">
</g>
<g
   id="g36"
   transform="matrix(0.96875152,0,0,0.96875152,0,10.312)"
   style="stroke-width:1.03225636">
</g>
<g
   id="g38"
   transform="matrix(0.96875152,0,0,0.96875152,0,10.312)"
   style="stroke-width:1.03225636">
</g>
</svg>